<svg width="34" height="36" viewBox="0 0 34 36" fill="none" xmlns="http://www.w3.org/2000/svg">
<path d="M33.443 28.2632C33.4414 28.314 33.4312 28.3642 33.413 28.4118L33.2533 28.6297C31.564 30.9094 29.3592 32.7638 26.8161 34.0439C24.273 35.324 21.4626 35.9941 18.611 36.0001C16.1463 36.0082 13.7062 35.5125 11.443 34.5439C14.0589 32.6369 16.1859 30.1459 17.6519 27.2721C19.1178 24.3984 19.8817 21.2227 19.8817 18.0018C19.8817 14.7808 19.1178 11.6051 17.6519 8.73137C16.1859 5.85765 14.0589 3.36659 11.443 1.45965C13.7062 0.494212 16.1442 -0.00244491 18.6077 0.000109829C21.4143 -0.00965108 24.1843 0.631334 26.697 1.87198C29.2097 3.11262 31.3955 4.91861 33.0803 7.14596L33.4496 7.6776H33.4696C33.4712 7.69738 33.4712 7.71726 33.4696 7.73704C33.4697 7.79916 33.4568 7.86063 33.4316 7.9175C33.4063 7.97437 33.3694 8.02537 33.3232 8.06725C33.1013 8.12008 32.885 8.17952 32.6743 8.24556C30.1962 9.0127 28.1026 10.682 26.814 12.9181C25.467 15.2791 25.1084 18.0706 25.8157 20.6913C26.2732 22.4066 27.1787 23.9718 28.4408 25.2288C29.7029 26.4858 31.2768 27.3901 33.0037 27.8504L33.2167 27.9066C33.2844 27.9389 33.3416 27.9894 33.3816 28.0525C33.4216 28.1156 33.4429 28.1886 33.443 28.2632Z" fill="#70AE6E"/>
<path d="M16.2749 18.0002C16.2766 20.7992 15.5753 23.5545 14.2342 26.0169C12.8932 28.4794 10.9548 30.5713 8.59435 32.1036C8.40044 32.2291 8.17118 32.2897 7.94006 32.2767C7.70895 32.2636 7.48811 32.1775 7.30983 32.031C5.19334 30.3443 3.48535 28.2077 2.31177 25.7788C1.13818 23.3499 0.528931 20.6905 0.528931 17.9969C0.528931 15.3032 1.13818 12.6439 2.31177 10.215C3.48535 7.78607 5.19334 5.64949 7.30983 3.96275C7.50796 3.80436 7.75424 3.71708 8.00866 3.71509C8.2181 3.7145 8.42304 3.7754 8.59768 3.89012C10.9585 5.42342 12.8968 7.51659 14.2373 9.98026C15.5778 12.4439 16.2781 15.2004 16.2749 18.0002Z" fill="#004FFF"/>
</svg>
