<svg width="16" height="16" viewBox="0 0 16 16" fill="none" xmlns="http://www.w3.org/2000/svg">
<path d="M9.98653 11.5604L9.98632 11.5603L9.9834 11.572C9.77765 12.3894 9.10928 12.9133 8.12665 12.9133H6.31331H6.21253L6.12863 12.9692L4.11529 14.3092L4.11527 14.3091L4.11088 14.3122C4.04056 14.3606 3.93331 14.3152 3.93331 14.2133V13.2467V12.9133H3.59998C2.99532 12.9133 2.51783 12.7131 2.19568 12.391L1.95998 12.6267L2.19568 12.391C1.86635 12.0616 1.66665 11.5838 1.66665 10.98V8.26667C1.66665 7.70355 1.84048 7.25094 2.12716 6.92928C2.41291 6.60867 2.83071 6.39564 3.36168 6.34547C3.44858 6.33879 3.52218 6.33333 3.59998 6.33333H8.12665C8.7309 6.33333 9.20854 6.5333 9.53428 6.85904C9.86002 7.18478 10.06 7.66242 10.06 8.26667V10.98C10.06 11.1961 10.0359 11.3904 9.98653 11.5604Z" fill="#292D32" stroke="black" stroke-width="0.666667"/>
<path d="M13.6525 9.3827L13.6525 9.38268L13.6494 9.38587C13.2285 9.81241 12.6059 10.0666 11.8333 10.0666L11.7266 10.0666V8.26665C11.7266 6.27588 10.1174 4.66665 8.12665 4.66665H3.66665V4.16665C3.66665 2.78407 4.78407 1.66665 6.16665 1.66665H11.8333C13.2159 1.66665 14.3333 2.78407 14.3333 4.16665V7.56665C14.3333 8.33919 14.0791 8.96184 13.6525 9.3827Z" fill="#292D32" stroke="black" stroke-width="0.666667"/>
</svg>
