<svg width="16" height="16" viewBox="0 0 16 16" fill="none" xmlns="http://www.w3.org/2000/svg">
<path d="M14.6666 6.66666V8.66666C14.6666 11.3333 13.3333 12.6667 10.6666 12.6667H10.3333C10.1266 12.6667 9.92665 12.7667 9.79998 12.9333L8.79998 14.2667C8.35998 14.8533 7.63998 14.8533 7.19998 14.2667L6.19998 12.9333C6.09331 12.7867 5.84665 12.6667 5.66665 12.6667H5.33331C2.66665 12.6667 1.33331 12 1.33331 8.66666V5.33333C1.33331 2.66666 2.66665 1.33333 5.33331 1.33333H9.33331" stroke="#666666" stroke-miterlimit="10" stroke-linecap="round" stroke-linejoin="round"/>
<path d="M13 4.66666C13.9205 4.66666 14.6666 3.92047 14.6666 2.99999C14.6666 2.07952 13.9205 1.33333 13 1.33333C12.0795 1.33333 11.3333 2.07952 11.3333 2.99999C11.3333 3.92047 12.0795 4.66666 13 4.66666Z" stroke="#666666" stroke-linecap="round" stroke-linejoin="round"/>
<path d="M10.6643 7.33333H10.6703" stroke="#292D32" stroke-width="1.33333" stroke-linecap="round" stroke-linejoin="round"/>
<path d="M7.99636 7.33333H8.00235" stroke="#292D32" stroke-width="1.33333" stroke-linecap="round" stroke-linejoin="round"/>
<path d="M5.32967 7.33333H5.33566" stroke="#292D32" stroke-width="1.33333" stroke-linecap="round" stroke-linejoin="round"/>
</svg>
