<svg width="16" height="16" viewBox="0 0 16 16" fill="none" xmlns="http://www.w3.org/2000/svg">
<path d="M9.15394 2.34001L10.3273 4.68668C10.4873 5.01334 10.9139 5.32668 11.2739 5.38668L13.4006 5.74001C14.7606 5.96668 15.0806 6.95334 14.1006 7.92668L12.4473 9.58001C12.1673 9.86001 12.0139 10.4 12.1006 10.7867L12.5739 12.8333C12.9473 14.4533 12.0873 15.08 10.6539 14.2333L8.66061 13.0533C8.30061 12.84 7.70728 12.84 7.34061 13.0533L5.34728 14.2333C3.92061 15.08 3.05394 14.4467 3.42728 12.8333L3.90061 10.7867C3.98728 10.4 3.83394 9.86001 3.55394 9.58001L1.90061 7.92668C0.927277 6.95334 1.24061 5.96668 2.60061 5.74001L4.72728 5.38668C5.08061 5.32668 5.50728 5.01334 5.66728 4.68668L6.84061 2.34001C7.48061 1.06668 8.52061 1.06668 9.15394 2.34001Z" stroke="#666666" stroke-linecap="round" stroke-linejoin="round"/>
</svg>
