<svg width="20" height="20" viewBox="0 0 20 20" fill="none" xmlns="http://www.w3.org/2000/svg">
<path d="M10 12.5002C11.3807 12.5002 12.5 11.3809 12.5 10.0002C12.5 8.6195 11.3807 7.50021 10 7.50021C8.61929 7.50021 7.5 8.6195 7.5 10.0002C7.5 11.3809 8.61929 12.5002 10 12.5002Z" stroke="#666666" stroke-width="1.5" stroke-miterlimit="10" stroke-linecap="round" stroke-linejoin="round"/>
<path d="M1.66669 10.7335V9.26688C1.66669 8.40021 2.37502 7.68355 3.25002 7.68355C4.75835 7.68355 5.37502 6.61688 4.61669 5.30855C4.18335 4.55855 4.44169 3.58354 5.20002 3.15021L6.64169 2.32521C7.30002 1.93354 8.15002 2.16688 8.54169 2.82521L8.63335 2.98354C9.38335 4.29188 10.6167 4.29188 11.375 2.98354L11.4667 2.82521C11.8584 2.16688 12.7084 1.93354 13.3667 2.32521L14.8084 3.15021C15.5667 3.58354 15.825 4.55855 15.3917 5.30855C14.6334 6.61688 15.25 7.68355 16.7584 7.68355C17.625 7.68355 18.3417 8.39188 18.3417 9.26688V10.7335C18.3417 11.6002 17.6334 12.3169 16.7584 12.3169C15.25 12.3169 14.6334 13.3835 15.3917 14.6919C15.825 15.4502 15.5667 16.4169 14.8084 16.8502L13.3667 17.6752C12.7084 18.0669 11.8584 17.8335 11.4667 17.1752L11.375 17.0169C10.625 15.7085 9.39169 15.7085 8.63335 17.0169L8.54169 17.1752C8.15002 17.8335 7.30002 18.0669 6.64169 17.6752L5.20002 16.8502C4.44169 16.4169 4.18335 15.4419 4.61669 14.6919C5.37502 13.3835 4.75835 12.3169 3.25002 12.3169C2.37502 12.3169 1.66669 11.6002 1.66669 10.7335Z" stroke="#666666" stroke-width="1.5" stroke-miterlimit="10" stroke-linecap="round" stroke-linejoin="round"/>
</svg>
