<svg width="16" height="16" viewBox="0 0 16 16" fill="none" xmlns="http://www.w3.org/2000/svg">
<path d="M8.00002 8C9.84097 8 11.3334 6.50761 11.3334 4.66666C11.3334 2.82571 9.84097 1.33333 8.00002 1.33333C6.15907 1.33333 4.66669 2.82571 4.66669 4.66666C4.66669 6.50761 6.15907 8 8.00002 8Z" stroke="#666666" stroke-linecap="round" stroke-linejoin="round"/>
<path d="M2.27338 14.6667C2.27338 12.0867 4.84004 10 8.00004 10C8.64004 10 9.26005 10.0867 9.84005 10.2467" stroke="#666666" stroke-linecap="round" stroke-linejoin="round"/>
<path d="M14.6666 12C14.6666 12.5 14.5267 12.9733 14.28 13.3733C14.14 13.6133 13.96 13.8267 13.7533 14C13.2866 14.42 12.6733 14.6667 12 14.6667C11.0266 14.6667 10.18 14.1467 9.71997 13.3733C9.4733 12.9733 9.33331 12.5 9.33331 12C9.33331 11.16 9.71998 10.4067 10.3333 9.92C10.7933 9.55333 11.3733 9.33333 12 9.33333C13.4733 9.33333 14.6666 10.5267 14.6666 12Z" stroke="#666666" stroke-miterlimit="10" stroke-linecap="round" stroke-linejoin="round"/>
<path d="M10.9597 12L11.6196 12.66L13.0397 11.3467" stroke="#666666" stroke-linecap="round" stroke-linejoin="round"/>
</svg>
